<svg version="1" xmlns="http://www.w3.org/2000/svg" width="580" height="580" viewBox="0 0 435.000000 435.000000"><path d="M299.3 13.4c-2.4 5-7.7 16.2-11.8 24.9-4.1 8.7-7.5 16-7.5 16.2 0 .1-3.1 6.8-7 14.9-3.8 8-7.9 16.8-9.1 19.4-1.2 2.6-4.2 9-6.7 14.2-4.6 9.8-9.4 20-15.5 33-1.9 4.1-5.9 12.7-8.9 19-3 6.3-7.2 15.3-9.3 20-6 13.2-6.1 13.2-8.4 7.8-1-2.5-3.7-8.3-5.9-12.9s-5.7-12-7.7-16.4c-2.1-4.4-5.2-11.2-7-15-1.8-3.9-5.6-12-8.5-18-2.9-6.1-6.6-13.9-8.2-17.5-1.6-3.6-4.7-10.1-6.8-14.5-2.1-4.4-5.1-10.9-6.8-14.5-1.6-3.6-5-10.8-7.5-16-7.5-16-11.7-24.9-18.3-39-3.5-7.4-6.7-13.6-7.1-13.7-.5-.1-3 4.6-5.8 10.5-2.7 5.9-7.8 16.7-11.2 24-3.5 7.3-6.3 13.5-6.3 13.6 0 .2-3.1 6.8-6.9 14.7-3.7 7.9-8 16.9-9.4 19.9-1.4 3-4.6 10-7.2 15.5-2.6 5.5-6.2 13.1-8 17-1.8 3.8-5.2 11-7.6 16-2.3 4.9-4.3 9.2-4.4 9.5 0 .3-2.2 5-4.9 10.5C57 162 49.5 178 42.9 192.1l-12 25.6 7.6 15.7c4.1 8.7 7.5 15.9 7.5 16.1 0 .2 3.4 7.4 7.5 16s7.5 15.8 7.5 16c0 .1 2.9 6.3 6.4 13.6 3.5 7.4 7.4 15.6 8.6 18.4 1.2 2.7 4.6 9.9 7.5 16 2.9 6 6.8 14.4 8.8 18.5 1.9 4.1 8.5 18.3 14.7 31.5 6.2 13.2 13.2 28 15.5 33 2.3 5 5.2 11.2 6.5 13.8l2.3 4.9 2.2-4.9c1.3-2.6 4.1-8.7 6.4-13.6 2.3-4.8 5.8-12.4 8-17 2.1-4.5 5.7-12.2 8-17.1 2.3-4.9 5.5-11.6 7.1-15 1.5-3.3 4.6-9.9 6.8-14.6 2.2-4.7 7.5-15.9 11.7-25 4.3-9.1 9.2-19.7 11-23.5 18.4-39.2 24.4-51.7 24.8-52.1.2-.3 1.1 1 2 2.8.9 1.8 3.7 7.8 6.2 13.3 2.6 5.5 6.5 13.8 8.7 18.5 2.2 4.7 5.5 11.6 7.3 15.5 1.8 3.8 5.4 11.5 8 17 2.6 5.5 6.2 13.1 8 17 1.8 3.8 5.2 11 7.5 16 2.3 4.9 5.7 12.1 7.5 16 1.8 3.8 5.2 11 7.5 16 2.3 4.9 7 15.1 10.5 22.5 13.3 28.5 13.3 28.6 14.4 25.9.5-1.3 4.3-9.5 8.5-18.3 4.2-8.7 7.6-15.9 7.6-16.1 0-.2 3.1-6.8 6.9-14.7 6.4-13.4 8-16.9 15.1-32.3 1.5-3.3 5.1-11 8-17 2.9-6.1 8-17.1 11.5-24.5 3.5-7.4 8.6-18.5 11.5-24.5 2.9-6.1 6.5-13.7 8-17 4.2-9.2 9.2-19.7 15.9-33.8 4.7-10 5.8-13.3 5.2-15-.5-1.2-3.2-7.2-6.1-13.2-2.9-6.1-6.5-13.7-8-17-3.5-7.5-12.1-25.8-23.2-49.5-2.2-4.7-5.6-11.9-7.5-16-1.9-4.1-7.1-15.2-11.5-24.5-4.4-9.4-9.3-19.7-10.8-23-1.5-3.3-5.3-11.3-8.4-17.9-3.1-6.5-5.6-11.9-5.6-12.1 0-.2-3.6-7.8-8-17s-8-17-8-17.4c0-.3-.6-1.3-1.3-2.2-1-1.3-1.9-.1-5.4 7.5zM141.8 86c2.2 4.7 5.9 12.5 8.2 17.5 2.3 4.9 9.3 19.8 15.5 33 6.2 13.2 13.2 28 15.5 33 2.3 4.9 5.8 12.4 7.7 16.5 1.9 4.1 4.9 10.4 6.5 14 1.7 3.6 4.1 8.7 5.4 11.4 1.3 2.8 2.4 5.5 2.4 6.1 0 .7-1.6 4.4-3.5 8.4-1.9 3.9-3.5 7.3-3.5 7.6 0 .2-2.7 5.9-5.9 12.7-3.2 6.8-7 14.8-8.4 17.8-1.4 3-5.5 11.7-9.1 19.4-3.6 7.6-6.6 13.9-6.6 14.1 0 .2-3.6 7.8-8 17s-8 16.8-8 17c0 .2-3.4 7.5-7.5 16.2s-8.3 17.6-9.4 19.8l-1.8 4-4.3-9c-2.3-5-8.9-18.9-14.5-31-5.7-12.1-12.4-26.5-15-32-2.6-5.5-6.2-13.2-8-17-1.8-3.9-5.2-11.1-7.5-16-2.3-5-5.7-12.2-7.5-16-1.8-3.9-6-12.7-9.3-19.8L59.1 218l1.8-4.3c1-2.3 3.8-8.3 6.1-13.2 2.3-5 5.7-12.2 7.5-16 1.8-3.9 5.3-11.3 7.7-16.5 2.5-5.2 5.7-12 7.1-15 2.4-5.3 6.8-14.8 15.4-33 2.2-4.7 5.6-11.9 7.6-16 1.9-4.1 5.4-11.6 7.7-16.5 2.3-5 5.8-12.4 7.7-16.5l3.5-7.5 3.3 7c1.8 3.8 5.1 10.8 7.3 15.5zm165.6-14.8c4.7 10.2 9 19.4 19.1 40.8 4.8 10.2 9.9 21 11.2 24 1.4 3 5.6 12 9.4 19.9 3.8 7.9 6.9 14.4 6.9 14.6 0 .2 3 6.5 6.6 14.1 3.6 7.7 8.6 18.2 11 23.5l4.4 9.6-6.1 12.9c-3.4 7.1-7.4 15.8-9 19.2-1.6 3.5-5.1 11-7.8 16.5-2.6 5.6-5.8 12.4-7.1 15.2-2.4 5.3-8.7 18.6-16.2 34.5-2.5 5.2-5.8 12.2-7.3 15.5-2.7 5.9-6.2 13.4-14.5 31l-4.3 9-2.7-6c-1.5-3.3-5.5-11.8-8.9-18.8-3.3-7.1-6.1-13-6.1-13.2 0-.1-3-6.5-6.6-14.1-9.7-20.3-16.4-34.6-16.4-34.9 0-.1-3.6-7.8-8-16.9-4.4-9.2-8-16.9-8-17.1 0-.2-3.4-7.3-7.5-15.9-4.1-8.6-7.5-16.3-7.5-17.1 0-.8.9-3.1 1.9-5.2 1.1-2.1 3.3-6.7 4.9-10.3 1.6-3.6 5.1-11 7.7-16.5 2.6-5.5 6-12.7 7.5-16 1.5-3.3 5.1-11 8-17 2.8-6.1 6.1-13 7.2-15.5 1.1-2.5 5.2-11 8.9-18.8 3.8-7.9 6.9-14.5 6.9-14.7 0-.2 3.4-7.5 7.6-16.2 4.2-8.7 8.3-17.5 9.1-19.6.8-2 1.7-3.7 2-3.7.2 0 1.9 3.3 3.7 7.2z"/></svg>