<?xml version="1.0" standalone="no"?>
<!DOCTYPE svg PUBLIC "-//W3C//DTD SVG 20010904//EN"
 "http://www.w3.org/TR/2001/REC-SVG-20010904/DTD/svg10.dtd">
<svg version="1.0" xmlns="http://www.w3.org/2000/svg"
 width="1084.000000pt" height="1084.000000pt" viewBox="0 0 1084.000000 1084.000000"
 preserveAspectRatio="xMidYMid meet">
<metadata>
Created by potrace 1.11, written by Peter Selinger 2001-2013
</metadata>
<g transform="translate(0.000000,1084.000000) scale(0.100000,-0.100000)"
fill="#000000" stroke="none">
<path d="M2 5423 l3 -5418 5408 0 c2975 0 5412 2 5416 5 4 3 7 2441 6 5418 l0
5412 -5418 0 -5417 0 2 -5417z m6168 3500 c4 -4 30 -87 58 -183 28 -96 89
-308 137 -470 47 -162 116 -396 152 -520 93 -319 159 -544 205 -700 22 -74 43
-148 48 -165 7 -28 34 -121 142 -485 21 -74 41 -142 43 -150 2 -8 13 -46 25
-85 12 -38 28 -95 36 -125 8 -30 23 -82 33 -115 10 -33 29 -94 41 -135 12 -41
30 -104 41 -140 10 -36 48 -165 84 -288 36 -123 67 -227 69 -231 3 -4 7 -18
10 -32 4 -22 39 -145 183 -634 31 -104 64 -219 74 -255 10 -36 32 -112 49
-170 17 -58 51 -172 75 -255 24 -82 85 -289 135 -460 51 -170 100 -339 109
-375 10 -36 28 -96 39 -135 22 -71 75 -252 182 -620 33 -110 64 -216 69 -235
6 -19 11 -35 11 -35 0 -1 -1178 3 -1186 4 -6 0 -15 16 -19 34 -4 17 -9 37 -10
42 -2 6 -50 177 -108 380 -58 204 -142 501 -187 660 -84 301 -112 398 -136
476 -8 25 -17 56 -19 69 -2 13 -11 44 -19 69 -8 25 -19 67 -26 94 -8 31 -18
47 -29 48 -71 4 -2212 1 -2216 -3 -3 -2 -53 -173 -111 -379 -59 -206 -135
-475 -171 -599 -35 -124 -66 -232 -68 -240 -2 -8 -27 -96 -55 -195 -28 -99
-58 -205 -66 -235 -8 -30 -26 -93 -40 -140 l-26 -85 -563 0 c-310 0 -566 3
-569 6 -3 3 3 32 13 65 16 49 36 119 56 194 2 8 17 60 34 116 17 56 89 301
160 545 71 244 156 536 189 649 33 113 81 277 107 365 46 159 108 370 145 495
45 153 192 656 195 670 5 21 113 389 125 426 6 17 30 100 54 185 25 85 105
361 179 614 176 599 220 749 272 930 24 83 58 197 75 255 17 58 36 120 42 139
5 18 11 41 14 50 2 9 21 77 43 151 48 161 129 441 176 600 18 63 59 203 91
310 31 107 59 205 61 217 3 13 14 23 27 25 51 7 1509 -1 1516 -9z"/>
<path d="M5337 7793 c-3 -4 -15 -44 -27 -88 -36 -130 -149 -535 -170 -605 -10
-36 -47 -164 -80 -285 -34 -121 -82 -292 -107 -380 -25 -88 -46 -164 -47 -170
-2 -5 -10 -35 -19 -65 -9 -30 -32 -113 -52 -185 -20 -71 -42 -152 -50 -180 -8
-27 -49 -171 -90 -320 -42 -148 -84 -299 -95 -335 -24 -83 -121 -432 -123
-445 -1 -5 335 -9 901 -10 l903 0 -7 30 c-3 16 -32 122 -64 235 -61 216 -159
565 -165 590 -2 8 -49 175 -105 370 -103 367 -121 429 -165 590 -14 52 -30
109 -35 125 -6 17 -35 118 -64 225 -74 266 -193 687 -223 790 -14 47 -26 92
-27 100 -3 16 -80 28 -89 13z"/>
</g>
</svg>
