<svg version="1" xmlns="http://www.w3.org/2000/svg" width="720" height="720" viewBox="0 0 540.000000 540.000000"><path d="M252.7.6c-.1.1-4.2.5-9.2.8-4.9.4-9.9.9-11 1.1-1.1.2-3.9.7-6.3.9-6 .8-22.5 3.7-23.2 4.1-.4.2-2 .6-3.6.9-1.7.3-7.7 2-13.4 3.7C122.2 31 68.1 78.6 43 138c-1.7 4.1-3.5 8.4-4 9.5-2.9 7-10.3 30.9-11.5 37.4-.8 4.6-1.4 7.2-1.9 8.9-.3.9-.7 3.3-1 5.2-.3 1.9-.7 4.4-1 5.5-.2 1.1-.7 4.2-1 7-.4 2.7-.9 6.3-1.2 8-4.2 28.8-3.7 89.5 1 115 .2 1.1.7 4.2 1 6.8.8 5.1 1.2 7.5 2.1 11.7.3 1.4.7 3.4.9 4.5 1 5.1 4.8 18.8 7.5 27 13.2 40.4 35.1 72.1 66.1 95.9 12.2 9.3 22.7 16.6 24 16.6.5 0 1 .4 1 1 0 .5.4 1 1 1 .5 0 3.8 1.7 7.2 3.8 22 13.4 59.5 27.4 85.1 31.7 1.8.3 3.9.8 4.7 1 .8.2 4.2.7 7.5 1.1 3.3.3 6.9.8 8 1 12 2.4 65.4 2.3 77.5-.1 1.4-.3 4.8-.7 7.5-1 2.8-.3 7.5-1 10.5-1.6 3-.5 6.9-1.2 8.5-1.4 5.9-.9 28.5-7.5 39.6-11.6 20.7-7.7 37.4-16.9 55.4-30.3 13.6-10.2 26.3-22.5 39.5-38.2 19.9-23.6 32.9-48.8 37.4-72.2 1.2-6.5 1.2-7.2-.3-7.3-4.4-.4-132.8-.5-133.8-.1-.7.2-2.6 2.9-4.4 6-7 12.5-18.5 25.3-30.5 33.8-7.6 5.4-26 13.2-35.4 14.9-15.7 3-39.5 3.9-52 2.1-43.6-6.4-74-26.6-90.9-60.3-3.3-6.7-9.4-24.3-10.7-30.8-1.2-6.3-1.3-6.8-1.8-10-.7-3.7-1.5-11.2-2-18.5l-.4-5.5 184.2.1c101.2 0 184.6-.1 185.2-.3.8-.3 1-8.4.8-28.1-.4-34.2-1.6-56.4-3.9-70.5-.3-1.5-.7-4.1-1-5.7-.3-1.7-.7-4.5-1-6.3-1-5.9-4.5-20.1-7.1-28.7-16.7-55.2-53.7-104.2-99.3-131.3-18.5-11-50-23-71.2-27.2-12.8-2.6-21.8-4-29.4-4.9-2.7-.3-7.5-.9-10.5-1.2-4.9-.6-45.7-1.3-46.3-.8zM290 111.4c1.4.3 5.2 1.1 8.5 1.7 24.6 4.5 49.4 19.7 64 39.4 7.3 9.8 14.7 25.3 17 35.5 2.1 9.5 3.6 17.8 4.1 23.2l.6 6.5H270l-114.2.1.5-4.2c1.9-15.4 11.1-41.7 19-54.1 13.1-20.7 28.2-33.7 48.2-41.5 7.7-2.9 23.8-6.6 32-7.3 5.8-.4 31.6.1 34.5.7z"/></svg>