<svg width="48" height="48" viewBox="0 0 48 48" fill="none" xmlns="http://www.w3.org/2000/svg">
<rect width="48" height="48" rx="24" fill="#FFD029"/>
<path d="M24.336 36.384C21.6053 36.384 19.568 35.392 18.224 33.408C16.9013 31.424 16.24 28.5653 16.24 24.832C16.24 21.0987 16.9013 18.24 18.224 16.256C19.568 14.272 21.6053 13.28 24.336 13.28C25.36 13.28 26.2453 13.4187 26.992 13.696C27.7387 13.9733 28.3787 14.3467 28.912 14.816C29.4453 15.2853 29.8933 15.8187 30.256 16.416C30.6187 16.992 30.9387 17.5787 31.216 18.176L28.912 19.232C28.72 18.7413 28.496 18.2827 28.24 17.856C27.984 17.408 27.6747 17.024 27.312 16.704C26.9707 16.3627 26.5547 16.096 26.064 15.904C25.5947 15.712 25.0187 15.616 24.336 15.616C22.5653 15.616 21.2427 16.288 20.368 17.632C19.5147 18.976 19.088 20.768 19.088 23.008V26.656C19.088 28.896 19.5147 30.688 20.368 32.032C21.2427 33.376 22.5653 34.048 24.336 34.048C25.0187 34.048 25.5947 33.952 26.064 33.76C26.5547 33.568 26.9707 33.312 27.312 32.992C27.6747 32.6507 27.984 32.2667 28.24 31.84C28.496 31.392 28.72 30.9227 28.912 30.432L31.216 31.488C30.9387 32.1067 30.6187 32.704 30.256 33.28C29.8933 33.856 29.4453 34.3787 28.912 34.848C28.3787 35.3173 27.7387 35.6907 26.992 35.968C26.2453 36.2453 25.36 36.384 24.336 36.384Z" fill="black"/>
</svg>
