<svg width="24" height="24" viewBox="0 0 24 24" fill="none" xmlns="http://www.w3.org/2000/svg">
<rect width="24" height="24" rx="12" fill="#FFD029"/>
<path d="M12.168 18.192C10.8027 18.192 9.784 17.696 9.112 16.704C8.45067 15.712 8.12 14.2827 8.12 12.416C8.12 10.5493 8.45067 9.12 9.112 8.128C9.784 7.136 10.8027 6.64 12.168 6.64C12.68 6.64 13.1227 6.70933 13.496 6.848C13.8693 6.98667 14.1893 7.17333 14.456 7.408C14.7227 7.64267 14.9467 7.90933 15.128 8.208C15.3093 8.496 15.4693 8.78933 15.608 9.088L14.456 9.616C14.36 9.37067 14.248 9.14133 14.12 8.928C13.992 8.704 13.8373 8.512 13.656 8.352C13.4853 8.18133 13.2773 8.048 13.032 7.952C12.7973 7.856 12.5093 7.808 12.168 7.808C11.2827 7.808 10.6213 8.144 10.184 8.816C9.75733 9.488 9.544 10.384 9.544 11.504V13.328C9.544 14.448 9.75733 15.344 10.184 16.016C10.6213 16.688 11.2827 17.024 12.168 17.024C12.5093 17.024 12.7973 16.976 13.032 16.88C13.2773 16.784 13.4853 16.656 13.656 16.496C13.8373 16.3253 13.992 16.1333 14.12 15.92C14.248 15.696 14.36 15.4613 14.456 15.216L15.608 15.744C15.4693 16.0533 15.3093 16.352 15.128 16.64C14.9467 16.928 14.7227 17.1893 14.456 17.424C14.1893 17.6587 13.8693 17.8453 13.496 17.984C13.1227 18.1227 12.68 18.192 12.168 18.192Z" fill="black"/>
</svg>
