<?xml version="1.0" encoding="UTF-8" standalone="no"?>
<svg xmlns:dc="http://purl.org/dc/elements/1.1/" 
  xmlns:cc="http://creativecommons.org/ns#" 
  xmlns:rdf="http://www.w3.org/1999/02/22-rdf-syntax-ns#" 
  xmlns:svg="http://www.w3.org/2000/svg" 
  xmlns="http://www.w3.org/2000/svg" id="SVGRoot" version="1.1" viewBox="0 0 305 305" height="305px" width="305px">
  <defs id="defs4343" />
  <metadata id="metadata4346">
    <rdf:RDF>
      <cc:Work rdf:about="">
        <dc:format>image/svg+xml</dc:format>
        <dc:type rdf:resource="http://purl.org/dc/dcmitype/StillImage" />
        <dc:title></dc:title>
      </cc:Work>
    </rdf:RDF>
  </metadata>
  <g id="layer1">
    <g id="layer1-1" transform="matrix(3.7795275,0,0,3.7795275,-1.0634951,4.1728354)">
      <g transform="matrix(0.35277777,0,0,-0.35277777,0.54352973,78.258159)" id="g405">
        <g transform="scale(0.1)" id="g407">
          <path id="path409" style="fill:#0ac855;fill-opacity:1;fill-rule:nonzero;stroke:none" d="m 2036.72,208.57 c -430.86,-22.621 -518.9,470.399 -687.94,466.891 -72.03,-1.512 -128.8,-76.82 -103.87,-164.59 13.71,-48.25 51.74,-119.012 75.7,-162.922 C 1405.13,193 1280.18,17.6484 1133.96,2.82031 890.973,-21.8281 789.609,119.129 795.883,263.43 802.934,425.422 940.277,590.941 799.406,661.371 651.777,735.18 531.773,446.551 390.504,382.129 262.637,323.82 85.1445,369.031 22.0547,511.012 -22.2695,610.781 -14.2109,802.891 183.117,876.191 306.383,921.969 581.063,816.32 595.152,950.141 611.391,1104.4 306.586,1117.41 214.82,1154.4 52.4414,1219.84 -43.4023,1359.87 31.6953,1510.09 c 56.336,112.68 222.1017,158.53 348.6367,109.17 151.574,-59.13 175.906,-216.35 253.563,-281.73 66.906,-56.35 158.468,-63.4 218.343,-24.66 44.164,28.58 58.86,91.35 42.2,148.69 -22.098,76.12 -80.747,123.62 -137.969,170.16 -101.824,82.78 -245.59,153.96 -158.629,379.91 71.273,185.17 280.344,191.85 280.344,191.85 83.05,9.33 157.436,-15.75 218.046,-69.9 81.03,-72.39 96.81,-169.15 83.25,-272.38 -12.39,-94.23 -45.74,-176.76 -63.13,-270.12 -20.18,-108.39 37.75,-217.61 147.92,-221.86 144.91,-5.6 188.36,105.78 206.09,176.38 25.96,103.3 60.03,199.2 155.9,259.6 137.59,86.69 328.71,67.69 417.38,-98.92 70.14,-131.83 47.62,-313.31 -59.97,-412.41 -48.27,-44.45 -106.31,-60.12 -169.09,-60.56 -90.03,-0.63 -180.02,1.57 -263.59,-40.56 -56.89,-28.67 -81.68,-75.39 -81.67,-138.01 0,-61.029 31.77,-100.888 83.25,-126.83 96.96,-48.871 203.99,-58.859 308.73,-77.199 151.89,-26.602 285.44,-80.102 371.18,-221.051 0.77,-1.238 1.52,-2.488 2.25,-3.75 98.47,-166.879 -4.51,-407.168 -198.01,-417.34" />
        </g>
      </g>
    </g>
  </g>
</svg>
