<svg width="68" height="51" viewBox="0 0 68 51" fill="none" xmlns="http://www.w3.org/2000/svg">
<g clip-path="url(#clip0_483_13620)">
<path d="M7.02881 16.4706H6.82169L6.67524 16.617L0.500001 22.7928L0.5 1.20563L15.7914 16.4706H7.02881Z" fill="#B8A2F4" stroke="white"/>
</g>
<rect x="4.5" y="24.5" width="63" height="26" rx="13" fill="#B8A2F4"/>
<path d="M19.544 42L18.908 39.768H16.244L15.608 42H14.24L16.688 33.624H18.524L20.972 42H19.544ZM17.624 34.98H17.528L16.496 38.652H18.656L17.624 34.98ZM26.0793 40.944H26.0193C25.9553 41.104 25.8713 41.26 25.7673 41.412C25.6713 41.556 25.5513 41.684 25.4073 41.796C25.2633 41.9 25.0953 41.984 24.9033 42.048C24.7113 42.112 24.4873 42.144 24.2313 42.144C23.6073 42.144 23.1033 41.94 22.7193 41.532C22.3353 41.124 22.1433 40.544 22.1433 39.792V35.808H23.4513V39.6C23.4513 40.584 23.8793 41.076 24.7353 41.076C24.9033 41.076 25.0673 41.056 25.2273 41.016C25.3873 40.968 25.5313 40.9 25.6593 40.812C25.7873 40.724 25.8873 40.616 25.9593 40.488C26.0393 40.352 26.0793 40.192 26.0793 40.008V35.808H27.3873V42H26.0793V40.944ZM35.2306 42.672C35.2306 43.312 34.9626 43.784 34.4266 44.088C33.8906 44.392 33.0746 44.544 31.9786 44.544C31.4426 44.544 30.9906 44.508 30.6226 44.436C30.2626 44.372 29.9666 44.276 29.7346 44.148C29.5106 44.02 29.3466 43.864 29.2426 43.68C29.1466 43.496 29.0986 43.288 29.0986 43.056C29.0986 42.72 29.1906 42.456 29.3746 42.264C29.5666 42.08 29.8346 41.944 30.1786 41.856V41.736C29.9706 41.656 29.8026 41.544 29.6746 41.4C29.5546 41.256 29.4946 41.068 29.4946 40.836C29.4946 40.532 29.5986 40.304 29.8066 40.152C30.0146 39.992 30.2826 39.872 30.6106 39.792V39.732C30.2346 39.556 29.9426 39.308 29.7346 38.988C29.5266 38.668 29.4226 38.284 29.4226 37.836C29.4226 37.508 29.4826 37.212 29.6026 36.948C29.7226 36.676 29.8906 36.448 30.1066 36.264C30.3306 36.072 30.5946 35.924 30.8986 35.82C31.2106 35.716 31.5586 35.664 31.9426 35.664C32.3746 35.664 32.7626 35.732 33.1066 35.868V35.664C33.1066 35.424 33.1746 35.224 33.3106 35.064C33.4466 34.904 33.6546 34.824 33.9346 34.824H35.0626V35.856H33.6226V36.144C33.8946 36.328 34.1026 36.564 34.2466 36.852C34.3906 37.132 34.4626 37.46 34.4626 37.836C34.4626 38.164 34.4026 38.464 34.2826 38.736C34.1626 39 33.9906 39.228 33.7666 39.42C33.5506 39.604 33.2866 39.748 32.9746 39.852C32.6706 39.948 32.3266 39.996 31.9426 39.996C31.6706 39.996 31.4146 39.972 31.1746 39.924C31.0306 39.964 30.8866 40.032 30.7426 40.128C30.5986 40.224 30.5266 40.356 30.5266 40.524C30.5266 40.716 30.6186 40.836 30.8026 40.884C30.9866 40.932 31.2146 40.956 31.4866 40.956H32.8786C33.7106 40.956 34.3106 41.116 34.6786 41.436C35.0466 41.748 35.2306 42.16 35.2306 42.672ZM34.0066 42.756C34.0066 42.548 33.9226 42.38 33.7546 42.252C33.5866 42.132 33.2826 42.072 32.8426 42.072H30.6946C30.3906 42.216 30.2386 42.448 30.2386 42.768C30.2386 43 30.3346 43.2 30.5266 43.368C30.7266 43.536 31.0546 43.62 31.5106 43.62H32.4826C32.9786 43.62 33.3546 43.544 33.6106 43.392C33.8746 43.248 34.0066 43.036 34.0066 42.756ZM31.9426 39.096C32.3666 39.096 32.6786 38.996 32.8786 38.796C33.0786 38.596 33.1786 38.328 33.1786 37.992V37.668C33.1786 37.332 33.0786 37.064 32.8786 36.864C32.6786 36.664 32.3666 36.564 31.9426 36.564C31.5186 36.564 31.2066 36.664 31.0066 36.864C30.8066 37.064 30.7066 37.332 30.7066 37.668V37.992C30.7066 38.328 30.8066 38.596 31.0066 38.796C31.2066 38.996 31.5186 39.096 31.9426 39.096ZM40.4699 40.944H40.4099C40.3459 41.104 40.2619 41.26 40.1579 41.412C40.0619 41.556 39.9419 41.684 39.7979 41.796C39.6539 41.9 39.4859 41.984 39.2939 42.048C39.1019 42.112 38.8779 42.144 38.6219 42.144C37.9979 42.144 37.4939 41.94 37.1099 41.532C36.7259 41.124 36.5339 40.544 36.5339 39.792V35.808H37.8419V39.6C37.8419 40.584 38.2699 41.076 39.1259 41.076C39.2939 41.076 39.4579 41.056 39.6179 41.016C39.7779 40.968 39.9219 40.9 40.0499 40.812C40.1779 40.724 40.2779 40.616 40.3499 40.488C40.4299 40.352 40.4699 40.192 40.4699 40.008V35.808H41.7779V42H40.4699V40.944ZM46.3933 42.144C45.7213 42.144 45.1413 42.036 44.6533 41.82C44.1733 41.604 43.7853 41.316 43.4893 40.956L44.2933 40.236C44.5653 40.532 44.8693 40.76 45.2053 40.92C45.5493 41.072 45.9533 41.148 46.4173 41.148C46.8413 41.148 47.1813 41.076 47.4373 40.932C47.7013 40.788 47.8333 40.564 47.8333 40.26C47.8333 40.132 47.8093 40.024 47.7613 39.936C47.7133 39.848 47.6453 39.776 47.5573 39.72C47.4693 39.664 47.3653 39.62 47.2453 39.588C47.1333 39.556 47.0133 39.532 46.8853 39.516L45.9013 39.36C45.6613 39.328 45.4173 39.276 45.1693 39.204C44.9213 39.132 44.6973 39.032 44.4973 38.904C44.3053 38.768 44.1453 38.596 44.0173 38.388C43.8973 38.18 43.8373 37.916 43.8373 37.596C43.8373 36.964 44.0773 36.484 44.5573 36.156C45.0453 35.828 45.6853 35.664 46.4773 35.664C47.0533 35.664 47.5493 35.752 47.9653 35.928C48.3893 36.096 48.7413 36.332 49.0213 36.636L48.2893 37.404C48.1293 37.22 47.9013 37.052 47.6053 36.9C47.3093 36.74 46.9173 36.66 46.4293 36.66C45.5573 36.66 45.1213 36.936 45.1213 37.488C45.1213 37.752 45.2133 37.936 45.3973 38.04C45.5893 38.136 45.8133 38.2 46.0693 38.232L47.0533 38.388C47.3013 38.428 47.5453 38.48 47.7853 38.544C48.0333 38.608 48.2533 38.708 48.4453 38.844C48.6453 38.972 48.8053 39.14 48.9253 39.348C49.0533 39.556 49.1172 39.82 49.1172 40.14C49.1172 40.764 48.8733 41.256 48.3853 41.616C47.9053 41.968 47.2413 42.144 46.3933 42.144ZM53.9486 42C53.4046 42 53.0046 41.856 52.7486 41.568C52.4926 41.272 52.3646 40.892 52.3646 40.428V36.864H50.4566V35.808H51.8126C52.0446 35.808 52.2086 35.764 52.3046 35.676C52.4006 35.58 52.4486 35.412 52.4486 35.172V33.624H53.6726V35.808H56.3126V36.864H53.6726V40.944H56.3126V42H53.9486Z" fill="#37362C"/>
<rect x="4.5" y="24.5" width="63" height="26" rx="13" stroke="white"/>
<defs>
<clipPath id="clip0_483_13620">
<rect width="17" height="24" fill="white"/>
</clipPath>
</defs>
</svg>
