<svg width="111" height="51" viewBox="0 0 111 51" fill="none" xmlns="http://www.w3.org/2000/svg">
<rect x="4.5" y="24.5" width="106" height="26" rx="13" fill="#FFD029"/>
<path d="M17.84 42.144C16.776 42.144 15.984 41.768 15.464 41.016C14.952 40.264 14.696 39.196 14.696 37.812C14.696 36.428 14.952 35.36 15.464 34.608C15.984 33.856 16.776 33.48 17.84 33.48C18.248 33.48 18.6 33.536 18.896 33.648C19.2 33.752 19.46 33.9 19.676 34.092C19.892 34.276 20.072 34.496 20.216 34.752C20.368 35 20.492 35.268 20.588 35.556L19.376 35.964C19.312 35.772 19.24 35.592 19.16 35.424C19.08 35.256 18.98 35.112 18.86 34.992C18.74 34.872 18.596 34.776 18.428 34.704C18.268 34.632 18.068 34.596 17.828 34.596C17.236 34.596 16.804 34.824 16.532 35.28C16.26 35.728 16.124 36.336 16.124 37.104V38.52C16.124 39.288 16.26 39.9 16.532 40.356C16.804 40.804 17.236 41.028 17.828 41.028C18.068 41.028 18.268 40.992 18.428 40.92C18.596 40.848 18.74 40.752 18.86 40.632C18.98 40.512 19.08 40.368 19.16 40.2C19.24 40.032 19.312 39.852 19.376 39.66L20.588 40.068C20.492 40.356 20.368 40.628 20.216 40.884C20.072 41.132 19.892 41.352 19.676 41.544C19.46 41.728 19.2 41.876 18.896 41.988C18.6 42.092 18.248 42.144 17.84 42.144ZM24.7953 42.144C24.3393 42.144 23.9273 42.068 23.5593 41.916C23.1993 41.764 22.8913 41.548 22.6353 41.268C22.3873 40.988 22.1953 40.648 22.0593 40.248C21.9233 39.848 21.8553 39.4 21.8553 38.904C21.8553 38.408 21.9233 37.96 22.0593 37.56C22.1953 37.16 22.3873 36.82 22.6353 36.54C22.8913 36.26 23.1993 36.044 23.5593 35.892C23.9273 35.74 24.3393 35.664 24.7953 35.664C25.2513 35.664 25.6593 35.74 26.0193 35.892C26.3873 36.044 26.6953 36.26 26.9433 36.54C27.1993 36.82 27.3953 37.16 27.5313 37.56C27.6673 37.96 27.7353 38.408 27.7353 38.904C27.7353 39.4 27.6673 39.848 27.5313 40.248C27.3953 40.648 27.1993 40.988 26.9433 41.268C26.6953 41.548 26.3873 41.764 26.0193 41.916C25.6593 42.068 25.2513 42.144 24.7953 42.144ZM24.7953 41.112C25.2753 41.112 25.6553 40.968 25.9353 40.68C26.2233 40.384 26.3673 39.948 26.3673 39.372V38.436C26.3673 37.86 26.2233 37.428 25.9353 37.14C25.6553 36.844 25.2753 36.696 24.7953 36.696C24.3153 36.696 23.9313 36.844 23.6433 37.14C23.3633 37.428 23.2233 37.86 23.2233 38.436V39.372C23.2233 39.948 23.3633 40.384 23.6433 40.68C23.9313 40.968 24.3153 41.112 24.7953 41.112ZM29.2906 40.944H31.3426V34.176H29.2906V33.12H32.6506V40.944H34.7026V42H29.2906V40.944ZM36.4859 40.944H38.5379V34.176H36.4859V33.12H39.8459V40.944H41.8979V42H36.4859V40.944ZM48.6853 42C48.3093 42 48.0253 41.904 47.8333 41.712C47.6493 41.52 47.5373 41.268 47.4973 40.956H47.4373C47.3173 41.332 47.0973 41.624 46.7773 41.832C46.4653 42.04 46.0653 42.144 45.5773 42.144C44.9453 42.144 44.4413 41.98 44.0653 41.652C43.6893 41.316 43.5013 40.856 43.5013 40.272C43.5013 39.672 43.7213 39.216 44.1613 38.904C44.6093 38.584 45.2933 38.424 46.2133 38.424H47.4013V37.944C47.4013 37.104 46.9573 36.684 46.0693 36.684C45.6693 36.684 45.3453 36.764 45.0973 36.924C44.8493 37.076 44.6413 37.28 44.4733 37.536L43.6933 36.9C43.8693 36.564 44.1653 36.276 44.5813 36.036C44.9973 35.788 45.5333 35.664 46.1893 35.664C46.9733 35.664 47.5893 35.852 48.0373 36.228C48.4853 36.604 48.7093 37.148 48.7093 37.86V40.968H49.4893V42H48.6853ZM45.9492 41.184C46.3733 41.184 46.7213 41.088 46.9933 40.896C47.2653 40.704 47.4013 40.456 47.4013 40.152V39.252H46.2373C45.2933 39.252 44.8213 39.536 44.8213 40.104V40.344C44.8213 40.624 44.9213 40.836 45.1213 40.98C45.3213 41.116 45.5973 41.184 45.9492 41.184ZM50.9246 33.12H52.2326V36.864H52.3046C52.4886 36.488 52.7326 36.196 53.0366 35.988C53.3406 35.772 53.7206 35.664 54.1766 35.664C54.9046 35.664 55.4846 35.936 55.9166 36.48C56.3486 37.024 56.5646 37.832 56.5646 38.904C56.5646 39.976 56.3486 40.784 55.9166 41.328C55.4846 41.872 54.9046 42.144 54.1766 42.144C53.7206 42.144 53.3406 42.04 53.0366 41.832C52.7326 41.616 52.4886 41.32 52.3046 40.944H52.2326V42H50.9246V33.12ZM53.6366 41.076C54.1326 41.076 54.5126 40.924 54.7766 40.62C55.0486 40.316 55.1846 39.912 55.1846 39.408V38.4C55.1846 37.896 55.0486 37.492 54.7766 37.188C54.5126 36.884 54.1326 36.732 53.6366 36.732C53.4446 36.732 53.2646 36.756 53.0966 36.804C52.9286 36.852 52.7806 36.924 52.6526 37.02C52.5246 37.116 52.4206 37.236 52.3406 37.38C52.2686 37.516 52.2326 37.68 52.2326 37.872V39.936C52.2326 40.128 52.2686 40.296 52.3406 40.44C52.4206 40.576 52.5246 40.692 52.6526 40.788C52.7806 40.884 52.9286 40.956 53.0966 41.004C53.2646 41.052 53.4446 41.076 53.6366 41.076ZM60.7719 42.144C60.3159 42.144 59.9039 42.068 59.5359 41.916C59.1759 41.764 58.8679 41.548 58.6119 41.268C58.3639 40.988 58.1719 40.648 58.0359 40.248C57.8999 39.848 57.8319 39.4 57.8319 38.904C57.8319 38.408 57.8999 37.96 58.0359 37.56C58.1719 37.16 58.3639 36.82 58.6119 36.54C58.8679 36.26 59.1759 36.044 59.5359 35.892C59.9039 35.74 60.3159 35.664 60.7719 35.664C61.2279 35.664 61.6359 35.74 61.9959 35.892C62.3639 36.044 62.6719 36.26 62.9199 36.54C63.1759 36.82 63.3719 37.16 63.5079 37.56C63.6439 37.96 63.7119 38.408 63.7119 38.904C63.7119 39.4 63.6439 39.848 63.5079 40.248C63.3719 40.648 63.1759 40.988 62.9199 41.268C62.6719 41.548 62.3639 41.764 61.9959 41.916C61.6359 42.068 61.2279 42.144 60.7719 42.144ZM60.7719 41.112C61.2519 41.112 61.6319 40.968 61.9119 40.68C62.1999 40.384 62.3439 39.948 62.3439 39.372V38.436C62.3439 37.86 62.1999 37.428 61.9119 37.14C61.6319 36.844 61.2519 36.696 60.7719 36.696C60.2919 36.696 59.9079 36.844 59.6199 37.14C59.3399 37.428 59.1999 37.86 59.1999 38.436V39.372C59.1999 39.948 59.3399 40.384 59.6199 40.68C59.9079 40.968 60.2919 41.112 60.7719 41.112ZM65.2792 40.944H66.9232V36.864H65.2792V35.808H68.2312V37.452H68.3032C68.3592 37.236 68.4392 37.028 68.5432 36.828C68.6472 36.628 68.7792 36.456 68.9392 36.312C69.0992 36.16 69.2952 36.04 69.5272 35.952C69.7592 35.856 70.0312 35.808 70.3432 35.808H71.0872V37.056H69.8632C69.3832 37.056 68.9912 37.2 68.6872 37.488C68.3832 37.768 68.2312 38.148 68.2312 38.628V40.944H70.4752V42H65.2792V40.944ZM77.4665 42C77.0905 42 76.8065 41.904 76.6145 41.712C76.4305 41.52 76.3185 41.268 76.2785 40.956H76.2185C76.0985 41.332 75.8785 41.624 75.5585 41.832C75.2465 42.04 74.8465 42.144 74.3585 42.144C73.7265 42.144 73.2225 41.98 72.8465 41.652C72.4705 41.316 72.2825 40.856 72.2825 40.272C72.2825 39.672 72.5025 39.216 72.9425 38.904C73.3905 38.584 74.0745 38.424 74.9945 38.424H76.1825V37.944C76.1825 37.104 75.7385 36.684 74.8505 36.684C74.4505 36.684 74.1265 36.764 73.8785 36.924C73.6305 37.076 73.4225 37.28 73.2545 37.536L72.4745 36.9C72.6505 36.564 72.9465 36.276 73.3625 36.036C73.7785 35.788 74.3145 35.664 74.9705 35.664C75.7545 35.664 76.3705 35.852 76.8185 36.228C77.2665 36.604 77.4905 37.148 77.4905 37.86V40.968H78.2705V42H77.4665ZM74.7305 41.184C75.1545 41.184 75.5025 41.088 75.7745 40.896C76.0465 40.704 76.1825 40.456 76.1825 40.152V39.252H75.0185C74.0745 39.252 73.6025 39.536 73.6025 40.104V40.344C73.6025 40.624 73.7025 40.836 73.9025 40.98C74.1025 41.116 74.3785 41.184 74.7305 41.184ZM82.7298 42C82.1858 42 81.7858 41.856 81.5298 41.568C81.2738 41.272 81.1458 40.892 81.1458 40.428V36.864H79.2378V35.808H80.5938C80.8258 35.808 80.9898 35.764 81.0858 35.676C81.1818 35.58 81.2298 35.412 81.2298 35.172V33.624H82.4538V35.808H85.0938V36.864H82.4538V40.944H85.0938V42H82.7298ZM89.5531 42.144C89.0971 42.144 88.6851 42.068 88.3171 41.916C87.9571 41.764 87.6491 41.548 87.3931 41.268C87.1451 40.988 86.9531 40.648 86.8171 40.248C86.6811 39.848 86.6131 39.4 86.6131 38.904C86.6131 38.408 86.6811 37.96 86.8171 37.56C86.9531 37.16 87.1451 36.82 87.3931 36.54C87.6491 36.26 87.9571 36.044 88.3171 35.892C88.6851 35.74 89.0971 35.664 89.5531 35.664C90.0091 35.664 90.4171 35.74 90.7771 35.892C91.1451 36.044 91.4531 36.26 91.7011 36.54C91.9571 36.82 92.1531 37.16 92.2891 37.56C92.4251 37.96 92.4931 38.408 92.4931 38.904C92.4931 39.4 92.4251 39.848 92.2891 40.248C92.1531 40.648 91.9571 40.988 91.7011 41.268C91.4531 41.548 91.1451 41.764 90.7771 41.916C90.4171 42.068 90.0091 42.144 89.5531 42.144ZM89.5531 41.112C90.0331 41.112 90.4131 40.968 90.6931 40.68C90.9811 40.384 91.1251 39.948 91.1251 39.372V38.436C91.1251 37.86 90.9811 37.428 90.6931 37.14C90.4131 36.844 90.0331 36.696 89.5531 36.696C89.0731 36.696 88.6891 36.844 88.4011 37.14C88.1211 37.428 87.9811 37.86 87.9811 38.436V39.372C87.9811 39.948 88.1211 40.384 88.4011 40.68C88.6891 40.968 89.0731 41.112 89.5531 41.112ZM94.0604 40.944H95.7044V36.864H94.0604V35.808H97.0124V37.452H97.0844C97.1404 37.236 97.2204 37.028 97.3244 36.828C97.4284 36.628 97.5604 36.456 97.7204 36.312C97.8804 36.16 98.0764 36.04 98.3084 35.952C98.5404 35.856 98.8124 35.808 99.1244 35.808H99.8684V37.056H98.6444C98.1644 37.056 97.7724 37.2 97.4684 37.488C97.1644 37.768 97.0124 38.148 97.0124 38.628V40.944H99.2564V42H94.0604V40.944Z" fill="#37362C"/>
<rect x="4.5" y="24.5" width="106" height="26" rx="13" stroke="white"/>
</svg>
